<?xml version="1.0" standalone="no"?>
<!DOCTYPE svg PUBLIC "-//W3C//DTD SVG 20010904//EN"
 "http://www.w3.org/TR/2001/REC-SVG-20010904/DTD/svg10.dtd">
<svg version="1.0" xmlns="http://www.w3.org/2000/svg"
 width="237.000000pt" height="237.000000pt" viewBox="0 0 237.000000 237.000000"
 preserveAspectRatio="xMidYMid meet">
<metadata>
Created by potrace 1.14, written by Peter Selinger 2001-2017
</metadata>
<g transform="translate(0.000000,237.000000) scale(0.100000,-0.100000)"
fill="#000000" stroke="none">
<path d="M0 1220 l0 -380 50 0 50 0 0 96 c0 105 -1 104 82 192 49 52 34 63
194 -138 l119 -150 58 0 58 0 -22 33 c-13 17 -26 34 -29 37 -3 3 -25 32 -49
65 -25 33 -47 62 -50 65 -12 10 -152 201 -157 213 -2 7 8 26 23 43 16 16 53
59 83 95 30 35 57 66 60 69 3 3 32 35 64 73 l58 67 -56 0 c-63 0 -57 5 -161
-114 -33 -38 -67 -77 -75 -86 -22 -25 -123 -139 -164 -185 l-36 -40 0 213 0
212 -50 0 -50 0 0 -380z"/>
<path d="M2128 1425 c-2 -2 -23 -5 -48 -8 -54 -7 -74 -14 -122 -44 l-38 -23
21 -39 20 -39 43 24 c25 14 68 27 103 30 101 11 163 -35 163 -119 l0 -34 -110
0 c-98 -1 -116 -3 -163 -27 -42 -20 -58 -35 -72 -66 -22 -49 -16 -130 12 -168
65 -88 241 -102 317 -26 l26 27 0 -37 0 -36 45 0 46 0 -1 206 c-1 115 -6 219
-12 237 -27 79 -93 130 -185 140 -23 2 -44 3 -45 2z m145 -338 c10 -28 -3 -88
-24 -115 -29 -35 -70 -52 -128 -52 -71 0 -112 32 -116 90 -1 28 30 71 55 76
14 3 30 7 35 9 31 8 174 2 178 -8z"/>
<path d="M789 1378 c-12 -24 -41 -79 -64 -123 -46 -84 -48 -96 -46 -245 l1
-85 102 -65 c56 -36 107 -67 112 -69 6 -2 14 -8 17 -13 3 -5 13 -6 22 -2 15 5
17 23 17 120 l0 113 51 98 c27 54 53 101 57 105 4 4 31 -8 60 -25 l52 -32 0
-113 c0 -87 3 -113 13 -110 8 3 13 39 14 126 l2 121 -182 114 c-100 63 -187
117 -194 121 -8 4 -20 -9 -34 -36z"/>
<path d="M1480 1409 c-76 -23 -119 -76 -125 -153 -3 -41 20 -101 47 -123 16
-13 96 -41 140 -48 68 -12 110 -27 129 -46 38 -38 1 -107 -60 -111 -75 -4
-128 4 -179 27 -30 14 -56 24 -57 23 -2 -2 -10 -20 -19 -42 -15 -36 -15 -40 1
-52 22 -15 114 -42 164 -48 49 -5 130 9 174 30 109 51 115 218 10 268 -19 9
-72 25 -118 35 -100 22 -125 34 -133 66 -17 66 34 100 142 93 44 -3 83 -12 98
-21 14 -10 27 -17 30 -17 5 0 36 66 36 78 0 34 -205 64 -280 41z"/>
<path d="M1058 1009 c-26 -19 -28 -26 -28 -95 l0 -75 30 18 c29 17 30 19 30
95 0 43 -1 78 -2 78 -2 0 -15 -10 -30 -21z"/>
</g>
</svg>
